<?xml version="1.0" encoding="UTF-8"?>
<svg version="1.1" xmlns="http://www.w3.org/2000/svg" width="303" height="338">
<path d="M0 0 C99.99 0 199.98 0 303 0 C303 111.54 303 223.08 303 338 C203.01 338 103.02 338 0 338 C0 226.46 0 114.92 0 0 Z " fill="#FEFEFE" transform="translate(0,0)"/>
<path d="M0 0 C2.19669401 3.29504102 2.89537533 6.27610138 3.75 10.0625 C5.24783696 16.3796237 7.05324642 22.53484719 9.125 28.6875 C9.37862305 29.4410376 9.63224609 30.1945752 9.89355469 30.97094727 C11.1635046 34.69146434 12.49495385 38.36638857 14 42 C18.16585446 41.40433463 21.14019502 39.99730495 24.76953125 37.89453125 C25.89431885 37.24718018 27.01910645 36.5998291 28.17797852 35.93286133 C29.38952636 35.22614396 30.60103257 34.51935521 31.8125 33.8125 C33.06335383 33.09010331 34.31457925 32.36834968 35.56616211 31.6472168 C41.66141912 28.12930914 47.73370751 24.57287418 53.796875 21 C54.85543701 20.37762451 55.91399902 19.75524902 57.00463867 19.11401367 C58.97948977 17.95054651 60.95124676 16.78180402 62.91918945 15.60668945 C74.94514001 8.50594783 84.94320621 3.28667637 99.18359375 6.78125 C108.041505 9.87764844 115.91025103 14.88600487 123.88867188 19.734375 C127.07422055 21.64393609 130.31539088 23.44781884 133.5625 25.25 C143.45186539 30.77211377 153.2227459 36.49616761 162.98583984 42.23779297 C165.89359814 43.93779292 168.81400193 45.61377805 171.73828125 47.28515625 C173.51328912 48.31464173 175.28804185 49.34456729 177.0625 50.375 C177.86461914 50.82593018 178.66673828 51.27686035 179.49316406 51.74145508 C188.19966992 56.84869067 193.75012049 63.41447804 197 73 C197.5312441 76.49233622 197.54837362 79.91384314 197.51757812 83.44165039 C197.5245874 84.44448563 197.53159668 85.44732086 197.53881836 86.48054504 C197.55631243 89.76987024 197.54480664 93.05832349 197.53125 96.34765625 C197.53394716 98.64733545 197.53783144 100.94701353 197.54284668 103.24668884 C197.54872994 108.05560208 197.5402155 112.86421723 197.52148438 117.6730957 C197.49868308 123.82547481 197.51183343 129.97715632 197.53577423 136.12950993 C197.55025271 140.87455976 197.54561694 145.61944516 197.53526306 150.36450005 C197.53260213 152.63262452 197.53584313 154.90076411 197.54518127 157.16887093 C197.55538175 160.34222909 197.53979643 163.51446891 197.51757812 166.68774414 C197.52567505 167.61731934 197.53377197 168.54689453 197.54211426 169.50463867 C197.45324301 176.38363003 195.82390711 181.63820583 191.359375 186.953125 C189.60774487 188.36463278 187.84778972 189.71607189 186 191 C185.42636719 191.40347656 184.85273438 191.80695313 184.26171875 192.22265625 C174.03244139 198.33393759 160.09723172 196.3405494 149 194 C126.44526492 187.65107676 101.28590221 173.189508 87.5 153.6875 C86 151 86 151 86 148 C87.68416016 147.65388672 87.68416016 147.65388672 89.40234375 147.30078125 C105.39838413 143.9016112 105.39838413 143.9016112 117 133 C121.67765859 123.96727996 121.09023512 113.8726115 118.375 104.25 C115.04295244 94.64997486 108.97353147 82.88768305 99.7578125 77.75 C98.88769531 77.37875 98.88769531 77.37875 98 77 C98.59167969 77.59425781 99.18335938 78.18851562 99.79296875 78.80078125 C108.58454185 88.02261078 113.15584441 97.06618637 113.25 109.8125 C113.270625 110.49892578 113.29125 111.18535156 113.3125 111.89257812 C113.35735715 117.81932968 112.06011926 122.23057385 108.45703125 127.07421875 C100.34375348 135.03332497 91.45086942 137.82734833 80.1875 138.375 C60.57887657 137.88401725 42.73076674 124.49749632 29.671875 111.0234375 C2.29249401 80.85801409 -0.56536733 38.7798498 0 0 Z " fill="#034686" transform="translate(66,46)"/>
<path d="M0 0 C0.18006592 0.8818396 0.18006592 0.8818396 0.36376953 1.78149414 C2.91870649 14.10551979 5.93029606 25.47669996 11 37 C11.35320312 37.95003906 11.70640625 38.90007812 12.0703125 39.87890625 C17.41239544 54.10467525 25.98696048 68.4918027 37 79 C38.24716797 80.24136719 38.24716797 80.24136719 39.51953125 81.5078125 C82.4528044 122.69973611 141.75953945 147.77961159 201.0625 149.5625 C202.41863016 149.60579628 203.77475011 149.64941366 205.13085938 149.69335938 C208.42048671 149.7987211 211.71018059 149.90084952 215 150 C214 152 214 152 212.3137207 152.76586914 C206.33431932 154.68646905 200.34191119 156.19016945 194.1875 157.4375 C193.13796143 157.652854 192.08842285 157.86820801 191.00708008 158.09008789 C184.27860221 159.39093015 177.59657864 160.32080618 170.78125 161 C169.98874344 161.08016861 169.19623688 161.16033722 168.37971497 161.24293518 C164.45153967 161.6340425 160.52383295 161.99211842 156.58862305 162.30444336 C147.30751973 163.11795306 140.07156045 165.15792492 132 170 C130.16064076 171.02430802 128.32080367 172.04775848 126.48046875 173.0703125 C124.71420355 174.08516877 122.94986119 175.10337921 121.1875 176.125 C120.29869141 176.63675781 119.40988281 177.14851562 118.49414062 177.67578125 C113.70752609 180.42575247 113.70752609 180.42575247 108.94775391 183.22167969 C100.99961425 187.91398039 92.05470994 188.40192021 83 187 C77.2414172 185.24611691 72.12080194 182.09852563 67 179 C65.68400295 178.22456555 64.367598 177.4498229 63.05078125 176.67578125 C60.61407224 175.23293729 58.20127213 173.76442394 55.79296875 172.2734375 C51.9324509 169.91385099 47.95639032 167.78229035 43.97827148 165.62890625 C30.72348954 158.37946735 17.67260148 150.699858 4.75 142.875 C4.04286865 142.45065674 3.3357373 142.02631348 2.60717773 141.58911133 C-6.97068607 135.73096538 -12.47332958 129.59179771 -15.37142944 118.59890747 C-16.77819165 110.5444306 -16.40480573 102.30362897 -16.36328125 94.15234375 C-16.36276162 92.12935893 -16.36328329 90.1063736 -16.36479187 88.08338928 C-16.36470255 83.85979598 -16.35435405 79.63639513 -16.33618164 75.4128418 C-16.31348158 70.02091645 -16.31295747 64.62927137 -16.31969929 59.23731136 C-16.32305318 55.06524703 -16.31638272 50.89324567 -16.30657005 46.72119331 C-16.30274334 44.73383476 -16.30155925 42.74646918 -16.3031559 40.75910759 C-16.30353007 37.97460643 -16.29080939 35.19045416 -16.2746582 32.40600586 C-16.27713562 31.59897217 -16.27961304 30.79193848 -16.28216553 29.96044922 C-16.17442307 18.22096232 -13.3345708 10.43286479 -5.875 1.4375 C-4 0 -4 0 0 0 Z " fill="#034686" transform="translate(64,102)"/>
<path d="M0 0 C0.33 0 0.66 0 1 0 C1.12528076 0.61818604 1.25056152 1.23637207 1.37963867 1.87329102 C7.40781127 31.33068773 16.94707481 60.06572723 43.18139648 77.64111328 C56.41015221 86.16193084 69.90662409 93.31652035 86.046875 90.4609375 C96.02958563 88.20116967 103.04771636 84.6089526 109 76 C112.19887564 67.58677217 110.68918073 55.4975653 107.265625 47.45703125 C103.71719962 40.56826717 99.14602702 34.75864928 94 29 C104.68455603 33.92768881 111.9012866 44.2067695 116.22265625 54.87109375 C119.63675742 64.22127032 121.34892195 75.91066912 117.03125 85.265625 C112.41306407 93.03257406 106.33682181 97.44029504 97.671875 99.97265625 C93.01142876 101.09597009 88.80662021 102 84 102 C91.52926655 118.23131605 107.82933872 128.59327202 123 137 C123.88558594 137.49371094 124.77117187 137.98742187 125.68359375 138.49609375 C132.49710836 142.08745367 139.72136299 144.53533185 147 147 C146 149 146 149 144 150 C144.66 150.99 145.32 151.98 146 153 C103.11103779 144.31362791 49.27611299 115.19856125 23 79 C15.32764565 67.39437242 8.99126496 55.16188334 4.17578125 42.10546875 C3.34705791 39.91664797 2.44502517 37.75490103 1.4921875 35.6171875 C-0.0992059 31.75951658 -1.1988054 27.98076078 -2.1875 23.9375 C-2.36474609 23.25623047 -2.54199219 22.57496094 -2.72460938 21.87304688 C-3.7302025 17.83126138 -4.18821703 14.16024541 -4 10 C-5.98 10.66 -7.96 11.32 -10 12 C-9.625 10.0625 -9.625 10.0625 -9 8 C-7 7 -7 7 -3 8 C-2.01 5.36 -1.02 2.72 0 0 Z " fill="#F5FAFB" transform="translate(68,92)"/>
<path d="M0 0 C3.46731362 3.18012198 5.3542183 5.68284076 5.86328125 10.4296875 C5.90823105 22.20653566 5.90823105 22.20653566 0.9453125 27.27734375 C-3.99237505 31.78059956 -7.55240918 32.97939091 -14.359375 32.828125 C-21.23002494 32.15655771 -24.87263449 28.5001856 -29.0546875 23.46484375 C-31.89886163 19.68064596 -31.76120264 16.20663737 -31.4375 11.625 C-30.2892482 5.97942863 -28.61298333 1.87052035 -23.796875 -1.53515625 C-15.39919872 -6.62852947 -7.58816898 -6.42924863 0 0 Z " fill="#F8FCFC" transform="translate(144.4375,125.375)"/>
<path d="M0 0 C2.77260705 2.58878511 3.23210728 4.75264321 3.36076355 8.39129639 C3.36946062 10.23058257 3.36148502 12.06999179 3.34057617 13.90917969 C3.34101425 14.91438156 3.34145233 15.91958344 3.34190369 16.95524597 C3.33981373 20.27765325 3.31647242 23.59955587 3.29296875 26.921875 C3.28737354 29.22544072 3.28310309 31.52901 3.28010559 33.83258057 C3.26865095 39.8956691 3.23917818 45.95854205 3.20599365 52.02154541 C3.17530627 58.20834436 3.16160309 64.39517813 3.14648438 70.58203125 C3.11430929 82.72144889 3.06310525 94.86070652 3 107 C2.67 107 2.34 107 2 107 C1.98969254 105.92497223 1.97938507 104.84994446 1.96876526 103.74234009 C1.87035489 93.53489498 1.76756716 83.32750174 1.66066074 73.12014198 C1.60585566 67.87438404 1.5525113 62.62862029 1.50268555 57.3828125 C1.45440657 52.30582988 1.40205521 47.22890312 1.34705925 42.15198898 C1.326919 40.22986648 1.3081654 38.30772886 1.29092598 36.38557816 C1.18076246 24.22914717 0.7893182 12.13196055 0 0 Z " fill="#124577" transform="translate(260,115)"/>
<path d="M0 0 C9.44942938 4.35805169 16.64375079 13.05815416 20.4375 22.625 C20.623125 23.40875 20.80875 24.1925 21 25 C20.34 25.33 19.68 25.66 19 26 C18.52998967 29.27555608 18.52998967 29.27555608 18.375 33.0625 C18.30023438 34.35285156 18.22546875 35.64320313 18.1484375 36.97265625 C18.09945312 37.97167969 18.05046875 38.97070312 18 40 C17.67 40 17.34 40 17 40 C16.97421875 39.18917969 16.9484375 38.37835938 16.921875 37.54296875 C16.12243116 21.93564463 10.23390929 11.45223183 0 0 Z " fill="#CEE1ED" transform="translate(162,121)"/>
<path d="M0 0 C0.33 0 0.66 0 1 0 C2.32 6.6 3.64 13.2 5 20 C4.34 20 3.68 20 3 20 C2.34 18.68 1.68 17.36 1 16 C-0.65 16 -2.3 16 -4 16 C-4 14.02 -4 12.04 -4 10 C-5.98 10.66 -7.96 11.32 -10 12 C-9.625 10.0625 -9.625 10.0625 -9 8 C-7 7 -7 7 -3 8 C-2.01 5.36 -1.02 2.72 0 0 Z " fill="#E6F2F7" transform="translate(68,92)"/>
<path d="M0 0 C1.71872538 2.57808807 2.48218488 4.10424011 3.25 7 C3.44078125 7.680625 3.6315625 8.36125 3.828125 9.0625 C4 11 4 11 2 14 C0.67696283 14.3721042 -0.65737935 14.70630173 -2 15 C-2.66 15.66 -3.32 16.32 -4 17 C-4.02701408 14.89590361 -4.04640223 12.79170822 -4.0625 10.6875 C-4.07410156 9.51574219 -4.08570312 8.34398438 -4.09765625 7.13671875 C-4 4 -4 4 -3 1 C-2.01 0.67 -1.02 0.34 0 0 Z " fill="#094887" transform="translate(73,70)"/>
<path d="M0 0 C2.33405954 3.50108931 3.11363958 6.90754908 4.0625 10.9375 C4.23587891 11.65357422 4.40925781 12.36964844 4.58789062 13.10742188 C5.06276739 15.07060971 5.53162336 17.03525123 6 19 C6.33179161 20.33371782 6.6647132 21.66715655 7 23 C6.01 23 5.02 23 4 23 C3.34 22.01 2.68 21.02 2 20 C1.67 21.98 1.34 23.96 1 26 C0.67 26 0.34 26 0 26 C0 17.42 0 8.84 0 0 Z " fill="#12477C" transform="translate(66,46)"/>
<path d="M0 0 C0.33 0 0.66 0 1 0 C1.04898438 1.07121094 1.09796875 2.14242187 1.1484375 3.24609375 C1.22345294 4.64325639 1.2990013 6.0403905 1.375 7.4375 C1.4059375 8.14455078 1.436875 8.85160156 1.46875 9.58007812 C1.57280629 11.39239188 1.77919892 13.19817988 2 15 C2.66 15.33 3.32 15.66 4 16 C4.33 15.67 4.66 15.34 5 15 C7 17 7 17 7 21 C7.66 21 8.32 21 9 21 C9.33 21.99 9.66 22.98 10 24 C10.99 24.66 11.98 25.32 13 26 C11.68 26.99 10.36 27.98 9 29 C2.02737349 21.98224322 -0.15532466 15.81532897 -0.1875 5.9375 C-0.13988122 3.95791939 -0.08256205 1.97843131 0 0 Z " fill="#0E477E" transform="translate(49,209)"/>
<path d="M0 0 C1.8253125 0.7115625 1.8253125 0.7115625 3.6875 1.4375 C12.11101987 4.2541975 21.19257229 4.17269466 30 4 C30 3.34 30 2.68 30 2 C32 0 32 0 35.125 -0.125 C36.07375 -0.08375 37.0225 -0.0425 38 0 C32.07383841 5.22896611 26.53156051 6.40965588 18.75 6.4375 C18.00435791 6.44136719 17.25871582 6.44523437 16.49047852 6.44921875 C10.11209404 6.31646538 5.29146372 4.64031902 0 1 C0 0.67 0 0.34 0 0 Z " fill="#17477A" transform="translate(137,283)"/>
<path d="M0 0 C0.66 0.33 1.32 0.66 2 1 C-0.59193749 8.47087865 -4.94748367 13.56351472 -11.9375 17.375 C-15.92582561 19.20135654 -19.64422477 19.6888732 -24 20 C-21.80715898 17.80715898 -20.60455041 17.43026121 -17.6875 16.5625 C-12.53521941 14.90086838 -12.53521941 14.90086838 -8 12 C-7.11341534 9.40877257 -7.11341534 9.40877257 -7 7 C-5.68 7 -4.36 7 -3 7 C-2.01 4.69 -1.02 2.38 0 0 Z " fill="#194979" transform="translate(177,163)"/>
<path d="M0 0 C0 1.98 0 3.96 0 6 C0.66 6 1.32 6 2 6 C2 6.66 2 7.32 2 8 C1.525625 8.433125 1.05125 8.86625 0.5625 9.3125 C-1.41383086 11.44693733 -1.61663236 13.16307947 -2 16 C-4.09715785 12.85426323 -4.52004559 10.98543749 -5.125 7.3125 C-5.29257813 6.31863281 -5.46015625 5.32476562 -5.6328125 4.30078125 C-5.75398438 3.54152344 -5.87515625 2.78226562 -6 2 C-1.125 0 -1.125 0 0 0 Z " fill="#F5FCFD" transform="translate(71,106)"/>
<path d="M0 0 C-0.99 1.485 -0.99 1.485 -2 3 C-2.99 3 -3.98 3 -5 3 C-4.67 4.32 -4.34 5.64 -4 7 C-5.65 7.33 -7.3 7.66 -9 8 C-12 4.375 -12 4.375 -12 1 C-8.0186217 -0.3271261 -4.14954773 -0.06915913 0 0 Z " fill="#114B81" transform="translate(164,193)"/>
<path d="M0 0 C0.99 0.495 0.99 0.495 2 1 C2.4140625 3.50390625 2.4140625 3.50390625 2.625 6.5625 C2.69976562 7.57441406 2.77453125 8.58632812 2.8515625 9.62890625 C2.92503906 10.80259766 2.92503906 10.80259766 3 12 C4.32 11.67 5.64 11.34 7 11 C7.99 12.485 7.99 12.485 9 14 C7.68 16.31 6.36 18.62 5 21 C4.67 21 4.34 21 4 21 C3.32781493 18.25124318 2.66207565 15.50119274 2 12.75 C1.80921875 11.97269531 1.6184375 11.19539063 1.421875 10.39453125 C1.24140625 9.64042969 1.0609375 8.88632813 0.875 8.109375 C0.70742187 7.41811523 0.53984375 6.72685547 0.3671875 6.01464844 C0 4 0 4 0 0 Z " fill="#144B81" transform="translate(71,101)"/>
<path d="M0 0 C2 1 2 1 5 3 C5 3.66 5 4.32 5 5 C4.01 5 3.02 5 2 5 C1.67 10.94 1.34 16.88 1 23 C0.67 23 0.34 23 0 23 C-0.39185886 20.29315955 -0.76383568 17.58596184 -1.125 14.875 C-1.23714844 14.11445312 -1.34929687 13.35390625 -1.46484375 12.5703125 C-2.07953869 7.81667161 -1.94901133 4.51881887 0 0 Z " fill="#08447C" transform="translate(68,66)"/>
<path d="M0 0 C6.42291173 2.91038188 12.03259763 8.21420488 16 14 C16 14.66 16 15.32 16 16 C14.68 16 13.36 16 12 16 C10.5078125 14.27734375 10.5078125 14.27734375 9.125 11.9375 C6.41203667 7.56353871 3.42736092 3.83538007 0 0 Z " fill="#CFE9F7" transform="translate(162,121)"/>
<path d="M0 0 C1.96713413 2.95070119 2.65358161 4.53581611 3 8 C0.76152748 11.35770877 0.59041601 11.2145965 -3 12 C-3.66 12.66 -4.32 13.32 -5 14 C-5.1875 11.125 -5.1875 11.125 -5 8 C-4.01 7.34 -3.02 6.68 -2 6 C-1.34 6.33 -0.68 6.66 0 7 C0 4.69 0 2.38 0 0 Z " fill="#134F8C" transform="translate(74,73)"/>
<path d="M0 0 C6.75 0.875 6.75 0.875 9 2 C9.33 2.99 9.66 3.98 10 5 C12.49759982 6.69882448 12.49759982 6.69882448 15 8 C14.01 8.495 14.01 8.495 13 9 C10.71741367 7.92325298 8.5643566 6.80453884 6.375 5.5625 C5.76398438 5.22412109 5.15296875 4.88574219 4.5234375 4.53710938 C3.011647 3.69853808 1.50529601 2.85017423 0 2 C0 1.34 0 0.68 0 0 Z " fill="#154A7D" transform="translate(110,267)"/>
<path d="M0 0 C1.7936743 1.1217963 3.5848773 2.24754483 5.375 3.375 C6.37273437 4.00148437 7.37046875 4.62796875 8.3984375 5.2734375 C11 7 11 7 13 9 C8.25 8.125 8.25 8.125 6 7 C5.67 7.99 5.34 8.98 5 10 C4.34 9.67 3.68 9.34 3 9 C3 8.34 3 7.68 3 7 C2.34 6.67 1.68 6.34 1 6 C1 5.01 1 4.02 1 3 C0.67 2.01 0.34 1.02 0 0 Z " fill="#144A81" transform="translate(131,206)"/>
<path d="M0 0 C2.3129482 2.3129482 2.49580975 3.47904875 3.125 6.625 C3.29257813 7.44226563 3.46015625 8.25953125 3.6328125 9.1015625 C3.81457031 10.04128906 3.81457031 10.04128906 4 11 C3.01 11 2.02 11 1 11 C0.34 10.01 -0.32 9.02 -1 8 C-1.33 8.66 -1.66 9.32 -2 10 C-1.34 6.7 -0.68 3.4 0 0 Z " fill="#144E86" transform="translate(69,58)"/>
<path d="M0 0 C-0.625 1.9375 -0.625 1.9375 -2 4 C-5.125 4.75 -5.125 4.75 -8 5 C-8 5.66 -8 6.32 -8 7 C-12.625 9.125 -12.625 9.125 -16 8 C-13.71125827 6.66141476 -11.41930344 5.32898986 -9.125 4 C-8.47402344 3.6184375 -7.82304687 3.236875 -7.15234375 2.84375 C-2.2265625 0 -2.2265625 0 0 0 Z " fill="#DEF0F7" transform="translate(198,271)"/>
<path d="M0 0 C0.33 0.66 0.66 1.32 1 2 C0.05125 1.938125 -0.8975 1.87625 -1.875 1.8125 C-6.84327831 1.78189459 -11.3383902 3.42424457 -16 5 C-15.67 3.68 -15.34 2.36 -15 1 C-9.94997778 -0.03590199 -5.12583611 -0.10251672 0 0 Z " fill="#124576" transform="translate(137,119)"/>
<path d="M0 0 C7.59 0 15.18 0 23 0 C22.67 0.66 22.34 1.32 22 2 C19.4375 2.625 19.4375 2.625 17 3 C17 2.34 17 1.68 17 1 C11.39 1 5.78 1 0 1 C0 0.67 0 0.34 0 0 Z " fill="#154573" transform="translate(256,252)"/>
<path d="M0 0 C2.93804996 -0.08086376 5.87388075 -0.1404283 8.8125 -0.1875 C9.64587891 -0.21263672 10.47925781 -0.23777344 11.33789062 -0.26367188 C12.54155273 -0.27817383 12.54155273 -0.27817383 13.76953125 -0.29296875 C14.87711792 -0.31653442 14.87711792 -0.31653442 16.00708008 -0.34057617 C18.52230522 0.08925833 19.39441516 1.07463062 21 3 C18.62471849 2.85796663 16.24984749 2.71148388 13.875 2.5625 C13.20984375 2.52318359 12.5446875 2.48386719 11.859375 2.44335938 C7.84981183 2.187848 3.95005804 1.73217587 0 1 C0 0.67 0 0.34 0 0 Z " fill="#BFD7E5" transform="translate(235,249)"/>
<path d="M0 0 C3.53372712 1.96318174 6.24479785 4.04070881 9 7 C6.625 7.625 6.625 7.625 4 8 C2.0276801 6.0276801 1.10526098 4.52631081 0 2 C0 1.34 0 0.68 0 0 Z " fill="#114A82" transform="translate(112,192)"/>
<path d="M0 0 C1.65 1.65 3.3 3.3 5 5 C4.34 6.32 3.68 7.64 3 9 C-1.875 4.375 -1.875 4.375 -3 1 C-2.01 0.67 -1.02 0.34 0 0 Z " fill="#104A81" transform="translate(91,145)"/>
<path d="M0 0 C0.66 0.66 1.32 1.32 2 2 C-2.29290618 6.75286041 -2.29290618 6.75286041 -6 7 C-6.66 6.34 -7.32 5.68 -8 5 C-4.04 2.525 -4.04 2.525 0 0 Z " fill="#0A457C" transform="translate(101,78)"/>
<path d="M0 0 C1.4540625 0.0309375 1.4540625 0.0309375 2.9375 0.0625 C3.2675 2.0425 3.5975 4.0225 3.9375 6.0625 C0.56246331 4.8766763 -1.70972731 3.78676311 -4.0625 1.0625 C-3.0625 0.0625 -3.0625 0.0625 0 0 Z " fill="#154C80" transform="translate(75.0625,243.9375)"/>
<path d="M0 0 C1.32 0 2.64 0 4 0 C4 0.66 4 1.32 4 2 C4.66 2 5.32 2 6 2 C6.33 3.98 6.66 5.96 7 8 C5.8274869 7.04882866 4.66212985 6.08882991 3.5 5.125 C2.8503125 4.59132812 2.200625 4.05765625 1.53125 3.5078125 C1.0259375 3.01023438 0.520625 2.51265625 0 2 C0 1.34 0 0.68 0 0 Z " fill="#0C447A" transform="translate(158,203)"/>
<path d="M0 0 C0.33 0.99 0.66 1.98 1 3 C-5.96428571 6.34821429 -5.96428571 6.34821429 -10 5 C-8.71186658 4.16121545 -7.41936744 3.32913217 -6.125 2.5 C-5.40570313 2.0359375 -4.68640625 1.571875 -3.9453125 1.09375 C-2 0 -2 0 0 0 Z " fill="#11487B" transform="translate(127,64)"/>
<path d="M0 0 C4.62 0 9.24 0 14 0 C13.01 1.485 13.01 1.485 12 3 C6.06 2.01 6.06 2.01 0 1 C0 0.67 0 0.34 0 0 Z " fill="#C3D9E8" transform="translate(151,289)"/>
<path d="M0 0 C0.66 0 1.32 0 2 0 C2 0.66 2 1.32 2 2 C2.99 1.67 3.98 1.34 5 1 C4.979375 1.7425 4.95875 2.485 4.9375 3.25 C4.99328688 5.70462279 5.3069904 7.66109261 6 10 C5.34 10 4.68 10 4 10 C2.68 6.7 1.36 3.4 0 0 Z " fill="#144C81" transform="translate(79,130)"/>
<path d="M0 0 C0.58007812 0.20496094 1.16015625 0.40992188 1.7578125 0.62109375 C6.1621984 2.14009813 10.35677777 3.4047151 15 4 C12 6 12 6 9.84375 5.64453125 C9.0703125 5.36996094 8.296875 5.09539062 7.5 4.8125 C6.7265625 4.55082031 5.953125 4.28914063 5.15625 4.01953125 C2.92204747 2.96314201 1.62040862 1.84373417 0 0 Z " fill="#205281" transform="translate(137,283)"/>
<path d="M0 0 C1.67542976 0.28604898 3.34385343 0.61781233 5 1 C4.67 1.99 4.34 2.98 4 4 C0.4375 5.1875 0.4375 5.1875 -3 6 C-3.66 5.34 -4.32 4.68 -5 4 C-3.35 4 -1.7 4 0 4 C-0.33 3.01 -0.66 2.02 -1 1 C-0.67 0.67 -0.34 0.34 0 0 Z " fill="#175085" transform="translate(245,235)"/>
<path d="M0 0 C1.32 0 2.64 0 4 0 C4.33 3.3 4.66 6.6 5 10 C4.34 9.67 3.68 9.34 3 9 C3 6.69 3 4.38 3 2 C2.34 2 1.68 2 1 2 C1 2.66 1 3.32 1 4 C0.34 4 -0.32 4 -1 4 C-0.67 2.68 -0.34 1.36 0 0 Z " fill="#164879" transform="translate(60,102)"/>
<path d="M0 0 C0.66 0.99 1.32 1.98 2 3 C-2.95 5.97 -2.95 5.97 -8 9 C-8.33 8.34 -8.66 7.68 -9 7 C-8.071875 6.401875 -7.14375 5.80375 -6.1875 5.1875 C-3.79745282 3.54727155 -1.91529747 2.1281083 0 0 Z " fill="#DEEEF7" transform="translate(259,230)"/>
<path d="M0 0 C2.39073445 3.82517513 2.55966552 7.59665524 3 12 C1.35 10.35 -0.3 8.7 -2 7 C-1.34 4.69 -0.68 2.38 0 0 Z " fill="#144F85" transform="translate(54,224)"/>
<path d="M0 0 C2.64 0.33 5.28 0.66 8 1 C8.66 2.65 9.32 4.3 10 6 C6.7 4.35 3.4 2.7 0 1 C0 0.67 0 0.34 0 0 Z " fill="#194A7E" transform="translate(89,256)"/>
<path d="M0 0 C2.49361571 1.20381448 4.68143083 2.45428722 7 4 C6.67 4.99 6.34 5.98 6 7 C3 5.1875 3 5.1875 0 3 C0 2.01 0 1.02 0 0 Z " fill="#255483" transform="translate(175,217)"/>
<path d="M0 0 C0.33 0 0.66 0 1 0 C1.08886184 3.19902639 0.91058531 5.92677456 0 9 C-1.65 9.33 -3.3 9.66 -5 10 C-3.35 6.7 -1.7 3.4 0 0 Z " fill="#1E4E7E" transform="translate(186,172)"/>
<path d="M0 0 C0.66 0 1.32 0 2 0 C2.33 1.98 2.66 3.96 3 6 C2.01 6 1.02 6 0 6 C-0.66 5.01 -1.32 4.02 -2 3 C-1.34 2.01 -0.68 1.02 0 0 Z " fill="#124C88" transform="translate(171,133)"/>
<path d="M0 0 C0.99 0 1.98 0 3 0 C4.0625 1.8125 4.0625 1.8125 5 4 C4.67 4.99 4.34 5.98 4 7 C2 5.1875 2 5.1875 0 3 C0 2.01 0 1.02 0 0 Z " fill="#0D4377" transform="translate(96,154)"/>
<path d="M0 0 C0 0.66 0 1.32 0 2 C0.66 2.33 1.32 2.66 2 3 C0.02 3.99 0.02 3.99 -2 5 C-2.99 3.68 -3.98 2.36 -5 1 C-2 0 -2 0 0 0 Z " fill="#08447C" transform="translate(176,126)"/>
<path d="M0 0 C2.64 0.33 5.28 0.66 8 1 C8 1.33 8 1.66 8 2 C3.545 2.495 3.545 2.495 -1 3 C-0.67 2.01 -0.34 1.02 0 0 Z " fill="#104577" transform="translate(248,258)"/>
<path d="M0 0 C2.375 -0.125 2.375 -0.125 5 0 C5.66 0.66 6.32 1.32 7 2 C6.67 2.99 6.34 3.98 6 5 C3.98079663 3.69593116 1.98075027 2.36176581 0 1 C0 0.67 0 0.34 0 0 Z " fill="#E4F7FD" transform="translate(126,202)"/>
<path d="M0 0 C0.33 0.99 0.66 1.98 1 3 C-0.9375 6.1875 -0.9375 6.1875 -3 9 C-3.99 8.34 -4.98 7.68 -6 7 C-4.02 4.69 -2.04 2.38 0 0 Z " fill="#D9EEF9" transform="translate(176,169)"/>
<path d="M0 0 C2.52588702 2.36292656 3.88820837 3.66462511 5 7 C4.34 7 3.68 7 3 7 C3 6.34 3 5.68 3 5 C1.68 4.67 0.36 4.34 -1 4 C-0.67 2.68 -0.34 1.36 0 0 Z " fill="#1D5182" transform="translate(84,160)"/>
<path d="M0 0 C0.33 1.32 0.66 2.64 1 4 C-2.75 5.125 -2.75 5.125 -5 4 C-4.67 3.01 -4.34 2.02 -4 1 C-2.02 1.495 -2.02 1.495 0 2 C0 1.34 0 0.68 0 0 Z " fill="#0B4D8B" transform="translate(174,57)"/>
</svg>
