<?xml version="1.0" standalone="no"?>
<!DOCTYPE svg PUBLIC "-//W3C//DTD SVG 20010904//EN"
 "http://www.w3.org/TR/2001/REC-SVG-20010904/DTD/svg10.dtd">
<svg version="1.0" xmlns="http://www.w3.org/2000/svg"
 width="780.000000pt" height="187.000000pt" viewBox="0 0 780.000000 187.000000"
 preserveAspectRatio="xMidYMid meet">

<g transform="translate(0.000000,187.000000) scale(0.100000,-0.100000)"
fill="#000000" stroke="none">
<path fill="#2563EB" d="M374 1405 c7 -141 44 -285 86 -338 49 -63 78 -89 131 -122 107 -66
226 -59 264 15 24 46 19 100 -15 153 -16 26 -26 47 -22 47 15 0 61 -68 78
-117 31 -88 -6 -162 -93 -186 -24 -6 -43 -17 -43 -23 0 -22 117 -119 185 -153
84 -41 165 -51 227 -28 71 27 73 33 76 288 4 272 2 280 -85 334 -156 96 -348
198 -383 202 -43 6 -65 -3 -243 -105 -71 -41 -109 -57 -112 -49 -3 6 -16 48
-30 92 l-25 80 4 -90z m347 -256 c16 -17 29 -40 29 -51 0 -33 -32 -77 -63 -88
-41 -14 -41 -14 -76 16 -26 21 -31 33 -31 69 0 35 5 48 26 64 39 31 80 27 115
-10z"/>
<path d="M1785 1319 c-107 -35 -184 -99 -232 -191 -24 -47 -27 -63 -28 -153 0
-90 3 -106 29 -163 65 -140 200 -210 387 -200 88 4 166 34 217 80 32 31 27 51
-24 97 l-45 40 -45 -34 c-24 -19 -60 -37 -80 -41 -45 -8 -129 3 -167 22 -132
69 -143 276 -19 371 75 57 194 52 278 -12 l34 -26 53 50 52 50 -43 40 c-56 54
-144 81 -256 80 -44 0 -94 -5 -111 -10z"/>
<path d="M2300 970 l0 -350 343 0 344 0 28 68 c16 37 32 69 36 72 4 3 78 4
164 2 l157 -3 31 -69 31 -70 83 0 c48 0 83 4 83 10 0 5 -20 54 -44 107 -23 54
-89 202 -146 328 -56 127 -107 236 -113 243 -7 9 -34 12 -90 10 l-79 -3 -70
-155 c-38 -85 -97 -216 -130 -290 -33 -74 -72 -160 -86 -190 l-27 -55 -3 63
-3 62 -174 0 -175 0 0 285 0 285 -80 0 -80 0 0 -350z m930 148 c5 -13 26 -66
48 -118 22 -52 38 -98 35 -102 -2 -5 -49 -8 -104 -8 -78 0 -99 3 -99 14 0 22
92 236 102 236 4 0 13 -10 18 -22z"/>
<path d="M3570 1255 l0 -65 43 0 c23 0 72 -3 110 -7 l67 -6 0 -278 0 -279 80
0 80 0 2 283 3 282 113 3 112 3 0 64 0 65 -305 0 -305 0 0 -65z"/>
<path d="M4470 1295 l0 -25 125 0 125 0 0 -325 0 -325 25 0 25 0 0 325 0 324
128 3 c119 3 127 4 127 23 0 19 -8 20 -277 23 l-278 2 0 -25z"/>
<path d="M5150 970 l0 -351 28 3 27 3 2 110 1 110 132 0 133 0 63 -90 c34 -49
74 -103 88 -118 25 -27 56 -33 63 -12 2 6 -30 58 -72 115 -41 58 -75 110 -75
116 0 6 14 17 30 24 41 17 94 80 108 129 25 81 9 159 -46 229 -55 68 -81 76
-294 80 l-188 4 0 -352z m368 285 c77 -33 112 -86 112 -170 0 -145 -96 -201
-333 -193 l-88 3 0 183 c0 100 1 184 1 187 0 3 61 5 135 5 100 0 145 -4 173
-15z"/>
<path d="M5875 1308 c-3 -8 -4 -165 -3 -349 l3 -334 23 0 24 0 -1 345 c0 339
-1 345 -21 348 -11 2 -22 -3 -25 -10z"/>
<path d="M6170 972 l0 -350 67 -8 c36 -3 129 -4 205 -2 128 5 143 7 196 34 77
40 102 79 102 159 0 76 -25 118 -89 154 l-43 24 24 15 c32 19 64 68 73 111 9
43 -10 111 -41 144 -51 55 -73 60 -291 65 l-203 5 0 -351z m408 279 c89 -46
97 -171 15 -227 -25 -17 -48 -19 -198 -19 l-170 0 -3 133 -3 132 161 0 c138 0
166 -3 198 -19z m45 -324 c65 -42 86 -131 47 -195 -33 -54 -66 -62 -270 -62
l-180 0 0 141 0 141 188 -4 c161 -3 192 -6 215 -21z"/>
<path d="M6925 1307 c-3 -6 -4 -163 -3 -347 l3 -335 243 -3 242 -2 0 25 0 25
-215 0 -215 0 0 140 0 140 186 0 185 0 -3 23 c-3 22 -5 22 -185 25 l-183 2 0
135 0 135 203 2 c201 3 202 3 205 26 l3 22 -231 0 c-176 0 -232 -3 -235 -13z"/>
<path fill="#2563EB" d="M310 1218 c-18 -30 -20 -51 -20 -260 0 -262 3 -276 79 -325 25 -17
114 -69 198 -117 190 -108 202 -109 337 -37 76 42 105 51 176 60 124 16 210
32 215 41 2 4 -37 10 -88 14 -185 14 -360 76 -531 190 -110 74 -173 130 -215
196 -32 50 -80 171 -95 243 -8 36 -32 34 -56 -5z"/>
</g>
</svg>
